<svg width="97" height="73" viewBox="0 0 97 73" fill="none" xmlns="http://www.w3.org/2000/svg">
<path d="M6.5 30.5H28C28.824 30.5 29.3119 29.5463 28.8881 28.8396C26.2327 24.4115 24.1227 17.1617 31.5 14C36.9376 11.6697 40.8526 13.9626 43.2995 17M0.5 49H25.5894C26.1055 49 26.5354 49.3901 26.5962 49.9027C27.2551 55.4585 29.5789 65.1215 34.5 65.5C39.7 65.9 42.4166 62.6667 43.1249 61M46 22C45.5298 20.5306 44.6325 18.6548 43.2995 17M43.2995 17C45.533 9.6667 52.9 -5.99998 66.5 4.00002C74.5183 9.89586 76.2377 15.0449 73 20.5M68 26C70.9413 24.0164 70.7462 24.2974 73 20.5M73 20.5C73.5764 19.5 74.8 19.6 78 22C80.1967 23.6476 80.6341 26.3318 80.4768 28.5M80 31C80.209 30.373 80.4049 29.4903 80.4768 28.5M80.4768 28.5C80.8758 23 93.9 20.1 95.5 36.5C96.6167 47.9465 90.816 50.803 85 50.5777M78 49C79.9633 49.8055 82.4831 50.4802 85 50.5777M85 50.5777C87.1667 57.2185 87.9 70.7 73.5 71.5C64.827 71.9818 60.9182 67.7721 59.4358 63M59.4358 57.5C58.9718 59.9526 58.4569 59.8489 59.4358 63M59.4358 63C60.1239 65.3333 59.6 69.8 52 69C47.414 68.5173 44.6607 64.8545 43.1249 61M42 56.5C42.1322 58.3507 42.1156 58.4668 43.1249 61M6.5 37.5H24.5M11 43H33.5M48.9395 43H51.9287C52.508 43 52.9662 43.4908 52.9263 44.0688L52.2864 53.3476C52.2141 54.396 53.6008 54.832 54.1415 53.9309L63.0913 39.0145C63.4912 38.348 63.0111 37.5 62.2338 37.5H57.6527C56.901 37.5 56.4181 36.7018 56.7669 36.036L60.7331 28.464C61.0819 27.7982 60.6006 27 59.8489 27C56.0791 27 50.559 27 48.0604 27C47.4836 27 47.0304 27.4867 47.0664 28.0624L47.9414 42.0624C47.9743 42.5894 48.4114 43 48.9395 43Z" stroke="white"/>
</svg>
